<svg width="1234" height="271" viewBox="0 0 1234 271" fill="none" xmlns="http://www.w3.org/2000/svg">
<g clip-path="url(#clip0_1_2)">
<mask id="mask0_1_2" style="mask-type:luminance" maskUnits="userSpaceOnUse" x="-23" y="-220" width="1280" height="720">
<path fill-rule="evenodd" clip-rule="evenodd" d="M-23 -220H1257V500H-23V-220Z" fill="white"/>
</mask>
<g mask="url(#mask0_1_2)">
<!-- <path d="M1257 -220H-23V500H1257V-220Z" fill="white"/> -->
<path fill-rule="evenodd" clip-rule="evenodd" d="M898.158 66.019C893.582 86.565 889.012 106.989 884.392 127.281C894.111 128.049 903.827 128.873 913.539 129.723C908.412 108.349 903.304 87.11 898.158 66.019ZM258.056 51.788C250.052 52.113 242.745 55.938 236.155 63.318C229.525 70.742 224.803 80.559 221.873 92.655C220.193 99.576 219.317 106.554 219.215 113.568C219.007 128.016 221.791 140.612 227.688 151.214C234.936 164.238 244.471 169.841 256.277 168.288C268.083 166.734 277.82 158.813 285.634 144.644C291.833 133.42 295.054 120.898 295.27 106.988C295.492 92.781 292.655 80.68 286.784 70.608C279.198 57.662 269.669 51.318 258.056 51.788ZM1019.01 48.459C1019.26 66.286 1019.5 84.113 1019.74 101.941C1021.91 102.126 1024.07 102.317 1026.23 102.506C1033.57 103.146 1038.81 101.128 1041.96 96.407C1045.38 91.261 1047.01 84.75 1046.91 76.934C1046.81 69.119 1045.01 62.427 1041.45 56.918C1038.1 51.761 1032.79 49.031 1025.51 48.729C1023.35 48.639 1021.18 48.547 1019.01 48.459ZM1109.22 6.533C1120.83 6.609 1132.44 6.689 1144.06 6.77C1144.29 39.873 1144.52 72.976 1144.76 106.078C1158.85 74.098 1172.67 41.06 1186.54 7.07899C1200.83 7.18699 1215.12 7.29799 1229.41 7.41299C1211.98 47.979 1194.62 87.108 1176.88 124.62C1196.68 171.321 1215.64 220.155 1234.17 270.956C1219.53 266.787 1204.88 262.747 1190.17 258.855C1175.45 219.053 1160.5 180.439 1145.02 143.12C1145.27 177.928 1145.51 212.736 1145.76 247.544C1134.34 244.754 1122.88 242.039 1111.42 239.421C1110.69 161.792 1109.95 84.162 1109.22 6.533ZM983.59 5.806C1001.65 5.895 1019.71 5.993 1037.77 6.095C1053.61 6.184 1065.44 14.161 1073.18 30.225C1079.52 43.316 1082.71 58.712 1082.9 76.237C1083.12 96.313 1079.84 112.013 1072.88 123.121C1068.47 130.163 1062.35 134.685 1054.5 136.634C1069.06 168.886 1083.29 202.117 1097.35 236.249C1083.08 233.083 1068.78 230.042 1054.45 227.146C1043.18 196.903 1031.81 167.268 1020.24 138.277C1020.61 165.752 1020.98 193.227 1021.36 220.702C1009.79 218.541 998.2 216.463 986.61 214.481C985.6 144.923 984.6 75.364 983.59 5.806ZM878.524 5.356C891.189 5.401 903.855 5.45 916.52 5.502C934.521 72.487 952.387 141.176 970.003 211.706C957.604 209.682 945.18 207.757 932.748 205.942C929.693 193.897 926.636 181.904 923.566 169.965C907.489 168.072 891.388 166.308 875.27 164.708C872.337 175.601 869.403 186.456 866.456 197.272C854.102 195.846 841.734 194.523 829.357 193.307C846.018 131.848 862.41 69.241 878.524 5.356ZM673.601 4.90601C685.091 4.91501 696.581 4.927 708.071 4.942C717.326 37.005 726.621 69.224 735.946 101.621C745.332 69.63 754.634 37.441 763.851 5.033C775.438 5.057 787.026 5.083 798.613 5.112C806.088 67.177 813.605 129.638 821.153 192.516C809.433 191.409 797.699 190.395 785.961 189.477C782.25 153.873 778.554 118.368 774.868 82.96C764.417 117.742 753.865 152.264 743.213 186.557C738.549 186.284 733.885 186.027 729.219 185.785C718.57 150.654 707.947 115.755 697.375 81.05C693.75 115.408 690.095 149.719 686.409 183.985C674.672 183.608 662.932 183.326 651.191 183.14C658.765 123.821 666.237 64.418 673.601 4.90601ZM558.528 4.908C583.964 4.888 609.4 4.88 634.836 4.886C634.848 17.757 634.859 30.628 634.871 43.498C621.016 43.471 607.162 43.475 593.308 43.512C593.285 53.647 593.263 63.781 593.241 73.916C606.37 73.857 619.499 73.846 632.628 73.885C632.638 86.754 632.647 99.624 632.657 112.493C619.49 112.434 606.323 112.45 593.156 112.54C593.133 123.153 593.11 133.766 593.087 144.379C607.045 144.256 621.004 144.241 634.963 144.333C634.974 157.203 634.986 170.074 634.998 182.945C609.224 182.73 583.445 182.977 557.681 183.684C557.963 124.092 558.246 64.5 558.528 4.908ZM494.534 4.98801C506.155 4.96901 517.776 4.951 529.397 4.938C528.99 64.857 528.584 124.776 528.177 184.696C516.413 185.18 504.65 185.76 492.895 186.435C493.442 125.953 493.988 65.47 494.534 4.98801ZM341.092 5.409C353.725 5.362 366.359 5.31599 378.992 5.27499C389.148 43.742 399.401 81.752 409.781 119.325C421.162 80.832 432.534 42.764 443.899 5.092C456.501 5.062 469.103 5.034 481.706 5.011C461.926 66.188 442.016 128.329 422.177 191.655C413.061 192.477 403.947 193.357 394.842 194.293C376.619 132.703 358.699 69.793 341.092 5.409ZM22.4386 7.27299C33.9168 7.18299 45.3951 7.09499 56.8741 7.00999C65.6063 50.781 74.2394 93.788 83.02 135.995C92.785 92.063 102.576 48.925 112.607 6.61501C124.186 6.53801 135.766 6.46101 147.346 6.38901C153.188 81.905 158.988 156.498 164.787 230.183C153.266 232.591 141.768 235.092 130.289 237.673C127.482 193.898 124.689 149.85 121.837 105.529C110.489 151.816 99.485 199.139 88.611 247.454C84.076 248.561 79.543 249.684 75.0104 250.819C65.1021 206.092 55.3139 160.399 45.3286 113.785C41.3206 162.675 37.4474 211.946 33.5937 261.592C22.2625 264.644 10.9684 267.784 -0.320007 271.001C7.02549 181.723 14.6015 93.819 22.4386 7.27299ZM258.854 -0.462006C282.415 -0.462006 300.803 11.329 314.368 34.368C326.109 54.353 331.872 77.561 331.461 104.337C331.051 131.017 324.548 155.02 312.159 176.748C297.817 201.853 279.023 216.464 255.479 220.538C232 224.601 213.523 215.767 200.213 192.928C188.355 172.533 182.794 147.104 183.188 117.16C183.368 103.48 185.16 89.315 188.64 74.747C192.102 60.256 196.608 47.834 202.272 37.551C216.325 12.004 235.294 -0.462006 258.854 -0.462006Z" fill="#C53030"/>
</g>
</g>
<defs>
<clipPath id="clip0_1_2">
<rect width="1234" height="271" fill="white"/>
</clipPath>
</defs>
</svg>
